<svg xmlns="http://www.w3.org/2000/svg" x="0px" y="0px" width="100" height="100" viewBox="0 0 100 100">
    <path d="M49 31c-.552 0-1-.447-1-1 0-8.897-7.673-9-8-9-.552 0-1-.447-1-1s.448-1 1-1c7.909 0 8-7.674 8-8 0-.553.448-1 1-1s1 .447 1 1c0 7.878 8.634 7.999 9.002 8h0C59.554 19.001 60 19.448 60 20c0 .543-.432.984-.971 1 0 0 0 0-.001 0 0 0 0 0 0 0 0 0 0 0-.001 0l0 0c-.006.001-.011.001-.016 0l0 0c0 0-.001 0-.001 0 0 0 0 0 0 0 0 0 0 0 0 0-.002 0-.002 0-.004 0-.001 0-.002 0-.004 0-8.897 0-9 8.633-9 9C50 30.553 49.552 31 49 31zM44.485 20.135c1.758.85 3.602 2.335 4.649 4.932.842-1.916 2.308-3.925 4.86-5.083-2-.83-3.92-2.242-5.027-4.496C48.195 17.245 46.845 19.088 44.485 20.135zM23.001 36c-.06 0-.121-.005-.182-.017-.263-.048-6.471-1.21-9.006-3.639-1.179-1.129-1.083-2.868.245-4.43 2.521-2.963 11.046-5.933 19.832-6.909.334-.039.664.097.878.354l5 6c.249.299.302.713.138 1.064S39.388 29 39 29c-7.919.001-17.117.978-18.168 2.555-.194.292-.175.47-.13.605.242.734 1.716 1.567 2.637 1.899.49.176.762.698.626 1.201C23.846 35.703 23.445 36 23.001 36zM33.578 23.056c-8.797 1.06-16.155 3.99-17.997 6.155-.227.266-.923 1.174-.385 1.69.795.762 2.187 1.414 3.62 1.927-.005-.014-.01-.027-.014-.041-.259-.785-.133-1.595.365-2.342 1.845-2.768 12.276-3.325 17.714-3.426L33.578 23.056zM76.991 36c-.443 0-.844-.296-.964-.738-.136-.502.135-1.024.624-1.202.95-.346 2.397-1.163 2.639-1.9.044-.135.064-.313-.13-.604C78.108 29.978 68.911 29.001 60.992 29c-.388 0-.741-.225-.906-.576s-.111-.766.138-1.064l5-6c.214-.257.54-.393.878-.354 8.786.977 17.311 3.946 19.832 6.908 1.328 1.563 1.424 3.302.245 4.431-2.535 2.429-8.743 3.591-9.006 3.639C77.111 35.995 77.051 36 76.991 36zM63.11 27.02c5.438.101 15.869.658 17.714 3.426.498.747.624 1.557.365 2.342-.004.014-.009.027-.014.041 1.433-.513 2.824-1.165 3.62-1.927.539-.517-.158-1.425-.384-1.691-1.842-2.164-9.199-5.095-17.997-6.154L63.11 27.02zM53 89c-17.231 0-27.936-11.074-27.936-28.901-.007-.351-.007-.723.002-1.094.317-13.358 11.197-24.012 24.376-24.012.183 0 .366.002.55.007 3.525-.131 8.36.671 12.337 2.056 2.346.845 4.491.885 6.975.931L70.021 38C70.565 38.012 71 38.456 71 39v16c0 .524-.405.959-.928.996-.519.05-.986-.334-1.062-.854-.079-.539-2.091-13.212-16.077-14.145C41.135 41 38 53.429 38 60c0 5.967 2.756 23 15 23 1.368.029 3.872-.65 5-1.462V72c0-3.012-5.186-4.643-7.184-5.017-.507-.096-.859-.562-.812-1.076C50.052 65.394 50.483 65 51 65h24c.537 0 .979.425.999.961.021.537-.386.995-.922 1.036C74.663 67.032 71 67.445 71 71v10c0 .224-.075.44-.213.616C66.896 86.585 61.078 89 53 89zM49.443 36.993c-12.1 0-22.086 9.786-22.378 22.06-.008.343-.008.684-.001 1.025C27.064 76.943 36.76 87 53 87c7.375 0 12.472-2.02 16-6.351V71c0-1.779.639-3.076 1.535-4H56.552C58.394 68.088 60 69.697 60 72v10c0 .266-.105.52-.293.707-1.452 1.452-5.037 2.339-6.735 2.293C39.054 85 36 66.953 36 60c0-7.264 3.553-21 17-21 9.18.61 13.768 5.881 16 10.182V39.98c-2.549-.048-4.781-.119-7.339-1.04-3.761-1.31-8.327-2.075-11.621-1.941C50.019 37 49.999 37 49.976 37 49.799 36.995 49.62 36.993 49.443 36.993z" fill="#ffffff"/>
</svg>